HIERARCHY
ROOT Hips
{
	OFFSET 0.000000 0.000000 0.000000 
	CHANNELS 6 Xposition Yposition Zposition Zrotation Yrotation Xrotation
	JOINT LeftUpLeg
	{
		OFFSET 1.363060 -1.794630 0.839290 
		CHANNELS 3 Zrotation Yrotation Xrotation
		JOINT LeftLeg
		{
			OFFSET 2.448110 -6.726130 0.000000 
			CHANNELS 3 Zrotation Yrotation Xrotation
			JOINT LeftFoot
			{
				OFFSET 2.562200 -7.039590 0.000000 
				CHANNELS 3 Zrotation Yrotation Xrotation
				JOINT LeftToeBase
				{
					OFFSET 0.157640 -0.433110 2.322550 
					CHANNELS 3 Zrotation Yrotation Xrotation
					End Site
					{
						OFFSET 0.000000 0.000000 0.000000 
					}
				}
			}
		}
	}
	JOINT RightUpLeg
	{
		OFFSET -1.305520 -1.794630 0.839290 
		CHANNELS 3 Zrotation Yrotation Xrotation
		JOINT RightLeg
		{
			OFFSET -2.542530 -6.985550 0.000000 
			CHANNELS 3 Zrotation Yrotation Xrotation
			JOINT RightFoot
			{
				OFFSET -2.568260 -7.056230 0.000000 
				CHANNELS 3 Zrotation Yrotation Xrotation
				JOINT RightToeBase
				{
					OFFSET -0.164730 -0.452590 2.363150 
					CHANNELS 3 Zrotation Yrotation Xrotation
					End Site
					{
						OFFSET 0.000000 0.000000 0.000000 
					}
				}
			}
		}
	}
	JOINT Spine
	{
		OFFSET 0.028270 2.035590 -0.193380 
		CHANNELS 3 Zrotation Yrotation Xrotation
		JOINT Spine1
		{
			OFFSET 0.056720 2.048850 -0.042750 
			CHANNELS 3 Zrotation Yrotation Xrotation
			JOINT Neck1
			{
				OFFSET -0.054170 1.746240 0.172020 
				CHANNELS 3 Zrotation Yrotation Xrotation
				JOINT Head
				{
					OFFSET 0.104070 1.761360 -0.123970 
					CHANNELS 3 Zrotation Yrotation Xrotation
					End Site
					{
						OFFSET 0.000000 0.000000 0.000000 
					}
				}
			}
			JOINT LeftArm
			{
				OFFSET 3.362410 1.200890 -0.311210 
				CHANNELS 3 Zrotation Yrotation Xrotation
				JOINT LeftForeArm
				{
					OFFSET 4.983000 -0.000000 -0.000000 
					CHANNELS 3 Zrotation Yrotation Xrotation
					JOINT LeftHand
					{
						OFFSET 3.483560 -0.000000 -0.000000 
						CHANNELS 3 Zrotation Yrotation Xrotation
						JOINT LeftHandIndex1
						{
							OFFSET 0.715260 -0.000000 -0.000000 
							CHANNELS 3 Zrotation Yrotation Xrotation
							End Site
							{
								OFFSET 0.000000 0.000000 0.000000 
							}
						}
					}
				}
			}
			JOINT RightArm
			{
				OFFSET -3.136600 1.374050 -0.404650 
				CHANNELS 3 Zrotation Yrotation Xrotation
				JOINT RightForeArm
				{
					OFFSET -5.241900 -0.000000 -0.000000 
					CHANNELS 3 Zrotation Yrotation Xrotation
					JOINT RightHand
					{
						OFFSET -3.444170 -0.000000 -0.000000 
						CHANNELS 3 Zrotation Yrotation Xrotation
						JOINT RightHandIndex1
						{
							OFFSET -0.622530 -0.000000 -0.000000 
							CHANNELS 3 Zrotation Yrotation Xrotation
							End Site
							{
								OFFSET 0.000000 0.000000 0.000000 
							}
						}
					}
				}
			}
		}
	}
}
MOTION
Frames: 18
Frame Time: 0.041667
36.394722 17.922277 -3.342697 43.367591 -89.357225 -34.053926 -11.399269 -13.222710 -20.017610 0.740336 9.804099 29.387693 -2.592594 9.968420 -1.304973 0.037000 -1.241700 -3.414200 15.542551 13.073938 -17.210704 -1.953165 -9.407294 30.625737 -0.928339 -1.367970 -16.891685 -3.845300 -11.951600 35.561100 0.743792 2.291794 -3.868942 1.388357 1.233609 1.364728 -14.904636 22.607724 6.894960 -5.185900 11.344500 3.679500 -48.780514 50.831815 45.007146 107.518391 -49.356626 -75.952108 0.386699 -0.340769 -5.346990 -7.125000 0.000000 0.000000 73.796114 -34.854092 8.854875 -48.135132 43.095562 -21.819081 1.298648 -0.045584 -1.855091 7.125000 0.000000 0.000000 
36.381052 17.911431 -3.385062 32.247748 -89.037289 -23.141393 -11.191166 -13.475504 -19.830334 0.767922 9.865760 29.518964 -2.596914 9.990063 -1.374593 0.045400 -1.375700 -3.783300 15.882337 12.767806 -16.992604 -2.005160 -9.427324 30.833038 -0.955519 -1.426870 -17.229951 -3.789100 -11.874400 35.289100 0.674150 2.338943 -3.801182 1.325474 1.267804 1.442849 -14.621250 23.359131 6.656042 -5.045700 11.720200 3.725200 -47.737615 50.264182 44.982414 108.512585 -49.363206 -76.862768 0.352631 -0.366555 -5.138467 -7.125000 0.000000 0.000000 74.613017 -34.670081 7.997508 -47.986169 43.076068 -21.774891 1.293898 -0.036054 -1.878934 7.125000 0.000000 0.000000 
36.372806 17.905105 -3.425053 28.186026 -88.813183 -18.896664 -11.024753 -13.631603 -20.004652 0.793833 9.914515 29.610229 -2.649401 10.148445 -1.357506 0.062000 -1.606500 -4.419200 16.049506 12.567144 -17.279609 -2.034938 -9.472348 30.988663 -0.934516 -1.585036 -17.349793 -3.638200 -11.662700 34.549000 0.611691 2.461923 -3.902147 1.328965 1.333527 1.450075 -14.227452 24.021519 6.765003 -4.842300 12.039200 3.825100 -46.723980 50.012358 45.168941 109.897762 -49.291224 -78.177185 0.321462 -0.400698 -4.512492 -7.125000 0.000000 0.000000 75.522104 -34.835088 7.058072 -48.025499 43.096585 -21.824315 1.291773 -0.036647 -1.891080 7.125000 0.000000 0.000000 
36.362525 17.899118 -3.457928 26.044623 -88.559491 -16.609169 -10.936510 -13.803242 -20.125127 0.812661 9.946240 29.689789 -2.641028 10.127862 -1.440892 0.071900 -1.730100 -4.760300 16.157706 12.319455 -17.561165 -2.055635 -9.515394 31.117433 -0.883237 -1.861899 -17.438819 -3.366100 -11.265300 33.180000 0.648669 2.493546 -3.974953 1.515309 1.350591 1.588282 -14.521679 24.502431 6.017568 -4.993400 12.322300 3.620600 -46.412039 49.800973 44.935827 111.106100 -49.156523 -79.354291 0.284677 -0.442672 -4.006529 -7.125000 0.000000 0.000000 75.988503 -35.084528 6.455292 -48.261330 43.158992 -21.955055 1.293925 -0.051443 -1.947061 7.125000 0.000000 0.000000 
36.345241 17.895390 -3.487639 23.401305 -88.379670 -13.928580 -10.794725 -13.972738 -20.111979 0.829008 9.968416 29.752420 -2.636549 10.115051 -1.506030 0.077500 -1.795800 -4.941700 16.350350 12.173583 -17.660997 -2.076261 -9.549984 31.244128 -0.831305 -2.188345 -17.622222 -3.061800 -10.794400 31.589500 0.683438 2.550895 -3.928508 1.600592 1.374138 1.877653 -14.586072 25.110371 5.434527 -4.965700 12.635600 3.500700 -46.182539 49.350190 44.543283 111.756656 -49.108196 -79.951845 0.255514 -0.477718 -3.469686 -7.125000 0.000000 0.000000 76.425256 -35.159908 5.878251 -48.424944 43.212548 -22.034373 1.293869 -0.064296 -1.915043 7.125000 0.000000 0.000000 
36.329764 17.896293 -3.519158 19.144881 -88.063640 -9.632187 -10.552147 -14.257235 -20.085997 0.848982 9.996823 29.838960 -2.563435 9.902322 -1.617532 0.068600 -1.689200 -4.647500 16.626575 11.947408 -17.692293 -2.089061 -9.564157 31.325810 -0.799434 -2.464281 -17.877736 -2.851400 -10.450500 30.448300 0.632298 2.632799 -3.966887 1.492101 1.413229 1.975908 -14.916022 25.535895 4.893685 -5.075700 12.870200 3.425800 -45.352045 48.889218 44.626027 111.910176 -49.179528 -80.014240 0.202352 -0.507249 -2.604698 -7.125000 0.000000 0.000000 77.279546 -35.295285 5.085624 -48.541098 43.255049 -22.101224 1.295676 -0.062441 -1.897653 7.125000 0.000000 0.000000 
36.316998 17.893695 -3.552146 14.997061 -87.589239 -5.551449 -10.300782 -14.640554 -19.980736 0.894370 10.048944 30.017718 -2.482511 9.662646 -1.657249 0.074700 -1.762600 -4.850100 16.890804 11.716834 -17.440833 -2.086097 -9.526128 31.268854 -0.927078 -2.090411 -18.225228 -3.140400 -10.918900 32.007000 0.512252 2.686336 -4.079729 1.216707 1.445501 1.823788 -15.263712 25.885833 4.198829 -5.253900 13.083900 3.307600 -44.109404 48.596368 45.072399 113.305483 -49.063756 -81.271323 0.214320 -0.535633 -2.931323 -7.125000 0.000000 0.000000 78.428775 -35.458984 4.064282 -48.566558 43.271386 -22.134593 1.296731 -0.062793 -1.877515 7.125000 0.000000 0.000000 
36.306040 17.881946 -3.579259 13.411023 -87.637033 -4.019171 -10.152245 -14.655892 -19.927536 0.918453 10.077867 30.096976 -2.532671 9.807046 -1.651777 0.085200 -1.882600 -5.181300 17.056098 11.808558 -17.305821 -2.122616 -9.548941 31.368872 -1.113347 -1.338193 -18.362523 -3.597400 -11.604500 34.346900 0.413843 2.900591 -4.080201 1.004785 1.549487 1.859832 -15.721929 26.276523 3.856948 -5.373200 13.291300 3.355000 -43.373546 48.172515 45.031976 114.391298 -48.935144 -82.255958 0.231375 -0.534299 -2.979360 -7.125000 0.000000 0.000000 79.241082 -35.508620 3.276296 -48.576281 43.298579 -22.163254 1.293843 -0.071245 -1.813870 7.125000 0.000000 0.000000 
36.291466 17.857092 -3.608970 11.651528 -87.411819 -2.440382 -10.074609 -14.669037 -19.883804 0.982219 10.163467 30.381565 -2.482804 9.669185 -1.861633 0.072300 -1.735200 -4.774500 17.388023 11.474747 -17.258710 -2.087946 -9.506650 31.274410 -0.900105 -2.232125 -18.270534 -3.238000 -11.070700 32.518800 0.398851 2.979537 -4.064623 1.003227 1.585479 1.841857 -16.171610 26.603320 3.792890 -5.459800 13.456000 3.466600 -42.802624 47.586814 45.024769 114.704931 -48.940934 -82.499162 0.222658 -0.536893 -2.704552 -7.125000 0.000000 0.000000 79.908534 -35.705261 2.583645 -48.754164 43.374315 -22.287862 1.291844 -0.081195 -1.640629 7.125000 0.000000 0.000000 
36.279830 17.894260 -3.639585 9.471906 -87.399277 -0.171710 -9.876256 -14.555097 -20.000476 0.995037 10.194857 30.435749 -2.478810 9.662664 -1.914758 0.079300 -1.816500 -4.998800 17.451522 11.892850 -16.858589 -2.156197 -9.531844 31.407396 -1.394650 -0.353438 -18.853764 -4.322800 -12.578000 37.808600 0.421773 3.101144 -4.208347 1.011030 1.656582 1.611949 -16.294143 27.141276 3.909130 -5.411400 13.717600 3.575500 -42.217327 47.091216 45.245771 114.990945 -48.943774 -82.733387 0.224454 -0.531674 -2.590826 -7.125000 0.000000 0.000000 80.421969 -36.007105 2.075669 -48.867923 43.408292 -22.381751 1.290977 -0.088847 -1.503302 7.125000 0.000000 0.000000 
36.268533 17.846925 -3.663196 7.536314 -87.411223 1.737088 -9.705116 -14.514463 -20.068070 1.032330 10.240821 30.569071 -2.515767 9.770465 -1.958353 0.099900 -2.038700 -5.612500 17.864556 11.367913 -17.394209 -2.125567 -9.553234 31.443995 -0.932909 -2.115708 -18.328625 -3.309700 -11.180300 32.890300 0.491526 3.181044 -4.245930 1.071212 1.701197 1.559302 -16.688899 27.579738 3.278300 -5.528200 13.969700 3.433200 -42.029685 46.683225 45.141822 115.425580 -48.883481 -83.132449 0.235880 -0.534943 -2.522677 -7.125000 0.000000 0.000000 80.577028 -36.113311 1.849030 -48.845464 43.388061 -22.381571 1.290252 -0.093252 -1.461390 7.125000 0.000000 0.000000 
36.255203 17.860482 -3.686694 7.159028 -87.532310 2.132132 -9.612511 -14.395300 -20.028711 1.019622 10.224176 30.496282 -2.575189 9.938342 -1.868634 0.126600 -2.293400 -6.317200 17.867242 11.464682 -17.296281 -2.219955 -9.651566 31.766989 -1.262929 -0.789290 -18.594495 -3.887900 -12.009700 35.766400 0.447062 3.364593 -4.196839 0.965171 1.794874 1.626561 -16.695366 27.961012 2.713376 -5.482000 14.164700 3.333700 -41.607432 46.160461 45.074109 115.922662 -48.842013 -83.549936 0.250836 -0.548045 -2.819575 -7.125000 0.000000 0.000000 81.019349 -36.056755 1.413623 -48.889325 43.424045 -22.407185 1.287851 -0.097576 -1.449505 7.125000 0.000000 0.000000 
36.236111 17.866356 -3.716744 7.677348 -87.204818 1.597830 -9.559565 -14.565329 -19.970856 1.045154 10.254178 30.603853 -2.546154 9.854871 -1.944860 0.153200 -2.522200 -6.951200 17.939307 11.231326 -17.219306 -2.265493 -9.697198 31.940331 -1.376442 -0.458251 -18.901752 -4.024000 -12.192200 36.415400 0.392829 3.346789 -4.141033 0.934037 1.783101 1.785554 -16.815551 28.377347 2.100621 -5.487400 14.387000 3.237600 -41.116254 45.556531 45.022933 116.306706 -48.826323 -83.850445 0.269066 -0.555932 -3.091884 -7.125000 0.000000 0.000000 81.553000 -35.986189 0.921532 -48.971653 43.476457 -22.446922 1.285906 -0.102326 -1.434459 7.125000 0.000000 0.000000 
36.221198 17.860595 -3.743857 9.343316 -86.813763 -0.270030 -9.606581 -14.795205 -19.712752 1.049081 10.243693 30.628404 -2.447803 9.560616 -1.890535 0.155000 -2.537100 -6.992400 17.966890 10.947331 -17.091381 -2.339094 -9.784356 32.260302 -1.440854 -0.376950 -19.246943 -4.027600 -12.197100 36.432700 0.384561 3.295344 -4.084143 1.016241 1.762463 1.797411 -16.547342 28.810042 1.461437 -5.386900 14.617600 3.010100 -40.819427 44.979069 44.937245 116.496530 -48.830434 -83.995914 0.279807 -0.557514 -2.970589 -7.125000 0.000000 0.000000 81.890904 -36.124640 0.676802 -49.125343 43.522989 -22.528238 1.286805 -0.100162 -1.515045 7.125000 0.000000 0.000000 
36.216454 17.855059 -3.760238 10.500929 -86.719729 -1.126800 -9.581556 -14.955335 -20.013816 1.068972 10.277767 30.705334 -2.380652 9.366512 -1.762800 0.140500 -2.415300 -6.655000 17.890783 10.881003 -17.516574 -2.365379 -9.835351 32.376828 -1.478655 -0.158171 -19.167348 -4.188100 -12.406600 37.186000 0.255229 3.371795 -4.247071 0.781755 1.811944 1.625227 -16.215526 29.357185 1.613055 -5.185300 14.863700 3.122500 -40.235564 44.563723 45.119652 116.698480 -48.842227 -84.134211 0.281634 -0.557962 -2.817639 -7.125000 0.000000 0.000000 82.538821 -36.278502 0.092632 -49.273799 43.603777 -22.647450 1.284415 -0.094327 -1.368298 7.125000 0.000000 0.000000 
36.206399 17.852235 -3.777975 9.966780 -86.702599 -0.567983 -9.495045 -14.932632 -20.119416 1.099172 10.328027 30.847276 -2.297167 9.130050 -1.816811 0.113200 -2.169500 -5.974200 18.009302 10.698644 -17.593988 -2.376571 -9.838129 32.392846 -1.523252 0.170252 -18.961754 -4.450500 -12.736900 38.391400 0.150833 3.440173 -4.274588 0.539775 1.843720 1.488801 -16.517167 29.551090 2.331442 -5.125500 14.912900 3.525600 -39.722636 44.138533 45.219238 116.990669 -48.838925 -84.335740 0.302983 -0.567315 -2.540980 -7.125000 0.000000 0.000000 83.061961 -36.274211 -0.421758 -49.330855 43.683097 -22.738545 1.278071 -0.087405 -1.199233 7.125000 0.000000 0.000000 
36.193634 17.847151 -3.797067 10.751744 -87.067814 -1.377865 -9.522802 -14.586846 -20.240387 1.132523 10.390721 31.018705 -2.276830 9.085711 -1.976089 0.098200 -2.021000 -5.563600 18.087042 10.592991 -17.666223 -2.367772 -9.823276 32.339574 -1.487395 0.311945 -18.454588 -4.610300 -12.931000 39.110600 0.186339 3.591462 -4.146972 0.665454 1.915879 1.619967 -16.954180 29.906372 2.383048 -5.071700 15.053900 3.712500 -39.853978 43.716751 44.854986 117.310868 -48.781356 -84.625972 0.326779 -0.564939 -1.984469 -7.125000 0.000000 0.000000 82.863621 -36.250874 -0.263932 -49.386289 43.717976 -22.792578 1.274710 -0.079221 -1.418876 7.125000 0.000000 0.000000 
36.175445 17.837323 -3.820226 12.239666 -87.013766 -2.951556 -9.592014 -14.539542 -20.224419 1.165743 10.437953 31.185376 -2.225173 8.944858 -2.170486 0.091500 -1.951100 -5.370700 18.141459 10.348415 -17.629247 -2.350402 -9.795699 32.264745 -1.434476 0.196927 -18.230390 -4.705500 -13.044200 39.534200 0.291611 3.521145 -4.053656 0.994256 1.880475 1.759120 -17.680571 30.043788 1.448613 -5.289800 15.165900 3.520000 -40.173644 43.644606 44.530024 117.633552 -48.700755 -84.940006 0.324262 -0.587363 -1.558974 -7.125000 0.000000 0.000000 82.571794 -36.305332 -0.088265 -49.472241 43.732283 -22.852029 1.273035 -0.080672 -1.674362 7.125000 0.000000 0.000000 
